<?xml version="1.0" encoding="UTF-8"?>
<svg version="1.1" xmlns="http://www.w3.org/2000/svg" width="16" height="16">
<path d="M0 0 C5.28 0 10.56 0 16 0 C16 5.28 16 10.56 16 16 C10.72 16 5.44 16 0 16 C0 10.72 0 5.44 0 0 Z " fill="#4B72FA" transform="translate(0,0)"/>
<path d="M0 0 C2.97 0 5.94 0 9 0 C11.19343018 4.38686036 11.36011287 6.46629044 10 11 C9 12 9 12 6.93359375 12.09765625 C3.46679688 12.04882812 3.46679688 12.04882812 0 12 C0 8.04 0 4.08 0 0 Z " fill="#EEEFFB" transform="translate(3,2)"/>
<path d="M0 0 C0.33 0 0.66 0 1 0 C1 2.31 1 4.62 1 7 C2.95917659 6.9131252 4.91741871 6.80495488 6.875 6.6875 C8.51082031 6.60048828 8.51082031 6.60048828 10.1796875 6.51171875 C11.11039063 6.34285156 12.04109375 6.17398437 13 6 C13.66 5.01 14.32 4.02 15 3 C15 4.98 15 6.96 15 9 C9.72 9 4.44 9 -1 9 C-1 2 -1 2 0 0 Z " fill="#0A18FB" transform="translate(1,7)"/>
<path d="M0 0 C0.05437607 1.58294782 0.09296271 3.16644256 0.125 4.75 C0.14820313 5.63171875 0.17140625 6.5134375 0.1953125 7.421875 C-0.00860498 10.1135858 -0.63448279 11.69904974 -2 14 C-2.66 13.67 -3.32 13.34 -4 13 C-3.835 12.401875 -3.67 11.80375 -3.5 11.1875 C-2.57993326 7.16220802 -3.40063112 4.69854053 -5 1 C-3 0 -3 0 0 0 Z " fill="#345AFA" transform="translate(16,0)"/>
<path d="M0 0 C2.64 0 5.28 0 8 0 C8.66 1.32 9.32 2.64 10 4 C5.545 4.495 5.545 4.495 1 5 C0.67 3.35 0.34 1.7 0 0 Z " fill="#96ACFA" transform="translate(4,2)"/>
<path d="M0 0 C2.64 0.33 5.28 0.66 8 1 C8 1.33 8 1.66 8 2 C6.02 2 4.04 2 2 2 C2 2.99 2 3.98 2 5 C3.32 5.33 4.64 5.66 6 6 C4.68 6 3.36 6 2 6 C2.33 7.65 2.66 9.3 3 11 C2.01 11.33 1.02 11.66 0 12 C0 8.04 0 4.08 0 0 Z " fill="#FDFDFD" transform="translate(3,2)"/>
<path d="M0 0 C1.98 0 3.96 0 6 0 C6 0.99 6 1.98 6 3 C4.02 3 2.04 3 0 3 C0 2.01 0 1.02 0 0 Z " fill="#2F47F9" transform="translate(5,9)"/>
<path d="M0 0 C0.99 0.33 1.98 0.66 3 1 C2.67 2.65 2.34 4.3 2 6 C1.67 5.01 1.34 4.02 1 3 C-0.98 3 -2.96 3 -5 3 C-4.360625 2.690625 -3.72125 2.38125 -3.0625 2.0625 C-1.06389179 1.1654837 -1.06389179 1.1654837 0 0 Z " fill="#E1E6F9" transform="translate(10,6)"/>
</svg>
